<?xml version="1.0" encoding="UTF-8" ?>
<!-- Generator: en.wikipedia.org/wiki/Module:Charts SVG -->
<svg id="head"
  xmlns="http://www.w3.org/2000/svg"
  xmlns:xlink="http://www.w3.org/1999/xlink"
  version="1.1"
  font-family="Helvetica, Arial"
  width="556"
  height="424"
>

<title>Charts SVG Example - Simple Pie Chart</title>
<desc>
  SVG chart generated by Charts SVG
</desc>

<metadata>
  <rdf:RDF
    xmlns:rdf = "http://www.w3.org/1999/02/22-rdf-syntax-ns#"
    xmlns:rdfs = "http://www.w3.org/2000/01/rdf-schema#"
    xmlns:dc = "http://purl.org/dc/elements/1.1/" >
    <rdf:Description
      dc:title="Charts SVG Example - Simple Pie Chart"
      dc:description="SVG chart generated by Charts SVG"
      dc:date="2014-3-13"
      dc:format="image/svg+xml"
      dc:language="en" >
    </rdf:Description>
  </rdf:RDF>
</metadata>

<!-- == backgrounds == -->

<!-- image background -->
<rect id="imagebackground" x="0" y="0" width="556" height="424" stroke-width="1" stroke="none" fill="white"/>

<!-- == graph area styles == -->

<style id="styles" type="text/css"> <![CDATA[
  /*-- general style of areas --*/
  .series-areas-general {
    stroke-width: 0;
  }
  /*-- series 1 --*/
  .series1 {
    fill:   rgb(0, 0, 255);
  }
  /*-- series 2 --*/
  .series2 {
    fill:   rgb(0, 192, 0);
  }
  /*-- series 3 --*/
  .series3 {
    fill:   rgb(255, 255, 0);
  }
  /*-- series 4 --*/
  .series4 {
    fill:   rgb(255, 0, 0);
  }
  /*-- series 5 --*/
  .series5 {
    fill:   rgb(192, 192, 0);
  }
]]>
</style>

<!-- == pie segments == -->

<g id="segments" class="series-areas-general" transform="scale(1, -1) translate(12, -412)">
  <!-- original data:
    A 80
    B 20
    C 60
    D 20
    E 80
  -->
  <path id="segment1" class="series1" d="M 200, 200 l 200, 0 a 200, 200 0 0 1 -271, 187 z" />
  <path id="segment2" class="series2" d="M 200, 200 l -71, 187 a 200, 200 0 0 1 -79, -54 z" />
  <path id="segment3" class="series3" d="M 200, 200 l -150, 133 a 200, 200 0 0 1 0, -266 z" />
  <path id="segment4" class="series4" d="M 200, 200 l -150, -133 a 200, 200 0 0 1 79, -54 z" />
  <path id="segment5" class="series5" d="M 200, 200 l -71, -187 a 200, 200 0 0 1 271, 187 z" />
</g>

<!-- == common element styles == -->

<style id="styles" type="text/css"> <![CDATA[
  .legendbox {
    stroke:       black;
    stroke-width: 1;
    fill:         white;
  }
  .legendtext {
    font-size:   15px;
    text-anchor: start;
  }
]]>
</style>

<!-- == legend == -->

<g id="legend" transform="translate(427, 52)">
  <rect id="legend-background" class="legendbox" x="0" y="0" width="123" height="117"/>

  <rect id="legend-area1" class="series-areas-general series1" transform="scale(1, -1)" x="6" y="-21" width="30" height="15"/>
  <text id="legend-text1" class="legendtext" x="42" y="21">A</text>

  <rect id="legend-area2" class="series-areas-general series2" transform="scale(1, -1)" x="6" y="-42" width="30" height="15"/>
  <text id="legend-text2" class="legendtext" x="42" y="42">B</text>

  <rect id="legend-area3" class="series-areas-general series3" transform="scale(1, -1)" x="6" y="-63" width="30" height="15"/>
  <text id="legend-text3" class="legendtext" x="42" y="63">C</text>

  <rect id="legend-area4" class="series-areas-general series4" transform="scale(1, -1)" x="6" y="-84" width="30" height="15"/>
  <text id="legend-text4" class="legendtext" x="42" y="84">D</text>

  <rect id="legend-area5" class="series-areas-general series5" transform="scale(1, -1)" x="6" y="-105" width="30" height="15"/>
  <text id="legend-text5" class="legendtext" x="42" y="105">E</text>
</g>

</svg>
